<?xml version="1.0" standalone="no"?>
<!DOCTYPE svg PUBLIC "-//W3C//DTD SVG 20010904//EN"
 "http://www.w3.org/TR/2001/REC-SVG-20010904/DTD/svg10.dtd">
<svg version="1.0" xmlns="http://www.w3.org/2000/svg"
 width="1024.000000pt" height="1024.000000pt" viewBox="0 0 1024 1024"
 preserveAspectRatio="xMidYMid meet">
<metadata>
Created by potrace 1.16, written by Peter Selinger 2001-2019
</metadata>
<g transform="translate(0.000000,1024.000000) scale(0.100000,-0.100000)"
fill="#000000" stroke="none">
<path d="M5010 8281 c-145 -30 -242 -153 -243 -306 0 -64 4 -83 32 -139 34
-69 80 -115 144 -143 l37 -17 -2 -1150 -3 -1151 -177 -3 -178 -2 0 849 0 849
39 31 c52 41 91 120 91 183 0 179 -187 292 -349 212 -155 -78 -174 -296 -35
-399 40 -29 42 -33 45 -90 2 -33 3 -414 1 -848 l-3 -787 -332 2 -332 3 -3 473
c-2 428 -1 472 14 472 9 0 51 18 94 41 98 51 159 114 208 217 36 75 37 80 37
192 0 112 -1 117 -37 193 -83 173 -231 268 -422 270 -129 1 -231 -38 -324 -126
-96 -92 -142 -200 -142 -337 0 -137 46 -245 144 -338 52 -50 162 -112 197 -112
11 0 18 -12 23 -37 3 -21 6 -282 6 -580 l0 -543 435 0 435 0 0 -140 0 -140
-586 2 -585 3 -2 390 c-2 385 -2 391 -25 437 -26 53 -88 113 -138 134 -26 11
-98 14 -327 14 l-294 0 -12 43 c-17 58 -74 140 -121 172 -155 108 -376 50 -451
-117 -32 -72 -33 -183 -2 -249 63 -138 203 -209 343 -172 57 14 133 58 161 91
16 19 34 20 333 21 l316 2 0 -386 0 -385 -171 0 c-178 0 -241 -9 -330 -50 -142
-63 -253 -200 -295 -361 -23 -87 -21 -241 4 -339 74 -285 273 -659 498 -940
148 -184 400 -416 599 -550 551 -372 1140 -555 1785 -554 817 1 1588 310 2159
867 280 274 525 636 660 980 17 43 31 81 31 85 0 4 -30 53 -66 107 -65 98 -150
196 -189 217 -11 6 -3 -5 18 -24 20 -19 34 -38 30 -42 -5 -4 -1 -6 7 -4 29 6
12 -93 -20 -121 -11 -9 -22 -29 -25 -46 -6 -27 -4 -25 14 10 30 62 24 34 -13
-57 -45 -112 -66 -150 -66 -123 0 11 7 31 16 43 8 12 11 22 6 22 -17 0 -35 -49
-29 -79 5 -21 1 -36 -13 -53 -12 -15 -19 -18 -20 -9 0 8 8 20 17 27 10 7 15 16
11 19 -4 4 -14 0 -23 -9 -21 -21 -25 -20 -25 4 0 11 6 19 12 17 9 -1 13 21 15
81 2 48 -1 82 -7 82 -10 0 -15 -27 -11 -67 1 -12 -3 -24 -9 -28 -6 -3 -7 0 -4 9
3 9 2 16 -3 16 -13 0 -44 -35 -42 -46 4 -21 -2 -32 -21 -37 -15 -4 -20 -14 -20
-37 0 -17 -4 -29 -9 -25 -6 3 -14 -1 -18 -9 -6 -10 -8 -2 -8 24 0 66 -68 94
-113 47 -29 -31 -28 -68 3 -97 14 -13 25 -28 25 -32 0 -5 -26 -44 -57 -86 -74
-101 -216 -242 -242 -242 -15 0 -19 -5 -14 -16 5 -14 3 -15 -16 -5 -12 7 -30 10
-39 8 -12 -3 -11 -5 6 -6 14 -1 22 -7 22 -20 0 -24 -25 -45 -46 -37 -12 5 -14 1
-8 -16 5 -17 3 -20 -10 -15 -9 4 -16 2 -16 -4 0 -5 -9 -20 -20 -32 -15 -15 -23
-18 -28 -10 -5 8 -13 9 -22 3 -8 -6 -32 -10 -52 -10 -35 0 -38 2 -39 28 0 25 -1
26 -9 5 -5 -13 -5 -36 1 -56 6 -21 6 -49 0 -73 -5 -22 -10 -32 -11 -24 -1 8 -6 2
-10 -15 -6 -23 -8 -12 -9 43 0 40 2 71 7 68 4 -2 7 13 7 34 0 22 -3 33 -7 27 -4
-7 -8 -20 -8 -30 0 -10 -5 -15 -11 -11 -6 3 -8 18 -5 33 5 22 4 23 -5 8 -7 -13
-7 -28 2 -54 7 -21 9 -59 6 -93 -18 -170 -143 -234 -321 -166 -69 26 -73 27
-314 26 -192 -1 -247 2 -253 12 -24 36 -29 105 -29 386 l0 302 -304 0 -304 0 -4
143 c-6 159 -19 213 -106 407 -45 103 -163 325 -182 344 -6 6 -10 14 -10 20 0
15 1172 -2 1187 -17 34 -35 308 -598 301 -619 -2 -5 -20 3 -40 19 -21 15 -57 42
-80 60 -95 70 -146 130 -220 253 -61 103 -101 171 -113 195 -9 18 -23 21 -125 25
-63 3 -120 9 -127 13 -7 5 -5 -8 6 -30 10 -21 37 -78 60 -128 141 -296 276 -561
320 -627 116 -173 272 -259 396 -218 58 19 121 83 142 143 29 83 24 239 -10 348
-37 120 -119 299 -219 478 -32 58 -58 106 -58 108 0 2 330 3 733 3 l732 0 38 -26
c87 -59 209 -72 314 -32 80 29 162 112 192 193 30 79 26 197 -8 265 -77 150
-220 222 -377 190 -77 -16 -120 -38 -172 -91 -66 -66 -94 -129 -100 -221 l-5
-78 -493 0 -494 0 0 140 0 140 219 0 c126 0 231 4 247 10 39 15 69 42 286 257
l197 196 48 -43 c72 -64 124 -84 213 -83 93 0 164 30 230 94 72 70 95 126 95
234 0 70 -5 100 -22 136 -30 66 -86 124 -151 156 -49 24 -68 27 -147 27 -60 0
-102 -6 -125 -16 -95 -44 -165 -123 -197 -225 -15 -48 -37 -73 -258 -293
l-242 -240 -197 0 -196 0 0 115 c0 67 6 137 14 169 18 68 8 110 -34 151 -25 24
-39 29 -78 29 -49 0 -95 -22 -108 -52 -3 -9 -6 -216 -4 -459 l2 -443 -121 0 -121
0 0 472 0 472 345 338 c367 361 374 370 354 442 -14 50 -45 84 -89 97 -33 10
-47 9 -84 -5 -50 -19 -70 -44 -80 -98 -6 -31 -50 -80 -302 -333 -163 -163 -296
-295 -297 -293 -1 2 -31 34 -67 71 l-65 67 143 140 142 139 0 254 0 254 41 19
c59 26 126 95 157 162 23 49 27 70 27 152 0 107 -17 154 -81 229 -156 182 -459
141 -566 -77 -30 -61 -33 -74 -32 -157 0 -77 4 -98 28 -145 15 -30 40 -69 56
-87 38 -43 109 -93 130 -93 21 0 30 -86 30 -288 l0 -135 -112 -114 -112 -113
-113 112 -113 113 0 70 c1 42 6 80 15 95 33 57 2 145 -61 175 -97 46 -194 -32
-180 -143 4 -26 9 -99 12 -162 3 -63 10 -125 16 -137 6 -12 152 -158 324 -324
l314 -302 0 -433 0 -434 -420 0 -420 0 0 139 0 140 263 3 c255 3 263 4 300 27 65
40 65 42 68 293 3 215 2 229 -17 255 -11 15 -37 36 -57 46 -33 17 -42 17 -79 5
-74 -23 -111 -112 -73 -178 10 -17 14 -58 15 -132 l0 -108 -210 0 -210 0 0 1153
0 1154 51 33 c100 64 155 173 147 289 -14 188 -193 322 -378 282z m153 -214 c86
-81 36 -217 -79 -217 -79 0 -127 39 -137 112 -10 77 49 138 135 138 39 0 52 -5
81 -33z m-604 -691 c53 -28 67 -106 28 -151 -16 -20 -35 -28 -68 -32 -41 -5 -48
-2 -77 27 -48 48 -41 118 16 153 33 20 65 21 101 3z m1638 -16 c46 -20 79 -64 89
-117 8 -45 -30 -122 -73 -146 -44 -25 -118 -25 -152 1 -100 74 -94 214 12 262 23
11 51 20 62 20 11 0 39 -9 62 -20z m-2452 -351 c52 -23 85 -53 120 -107 23 -35 29
-57 33 -120 3 -70 1 -82 -26 -132 -69 -130 -237 -177 -371 -104 -85 46 -133 126
-133 224 -2 192 200 320 377 239z m4242 -1069 c84 -51 83 -180 -3 -236 -35 -23
-113 -23 -149 0 -15 10 -36 38 -47 63 -27 61 -18 106 32 155 33 34 43 38 86 38
31 0 61 -7 81 -20z m-5794 -11 c54 -24 75 -114 37 -161 -42 -54 -125 -61 -170
-13 -14 15 -24 41 -27 69 -5 42 -3 48 30 81 38 38 82 46 130 24z m2787 -909 l0
-140 -180 0 -180 0 0 140 0 140 180 0 180 0 0 -140z m3119 46 c55 -29 86 -102 69
-163 -27 -100 -136 -141 -219 -82 -81 57 -79 189 4 239 38 24 106 26 146 6z
m-5105 -408 c22 -117 33 -154 62 -226 69 -167 293 -599 381 -734 66 -101 103
-134 159 -142 26 -3 489 -6 1030 -6 l984 0 0 -204 c0 -221 7 -282 45 -363 l24
-53 -680 0 c-426 0 -679 -4 -679 -10 0 -6 101 -8 268 -5 147 2 292 0 322 -4 43
-7 30 -8 -65 -6 -66 1 -103 1 -82 -2 20 -2 37 -8 37 -14 0 -5 19 -10 43 -11 l42
-1 -38 -4 c-21 -3 -44 0 -50 5 -7 5 -29 8 -49 7 -20 -1 -35 2 -32 7 3 4 -14 8
-38 8 -27 0 -38 -3 -30 -9 19 -12 -9 -21 -56 -19 -37 1 -36 1 8 8 39 6 33 7 -37
8 -68 2 -83 -1 -83 -13 0 -13 39 -15 283 -17 l282 -3 -285 -5 -285 -5 325 -5
325 -4 -205 -6 c-113 -3 -187 -8 -165 -11 28 -5 24 -5 -15 -2 -195 14 -240 15
-257 8 -10 -5 -22 -7 -28 -5 -31 9 -171 -3 -186 -16 -8 -8 -19 -11 -24 -7 -4 5
-5 2 -1 -5 4 -7 0 -24 -9 -38 -12 -18 -15 -37 -11 -63 5 -32 5 -33 -5 -11 -15
34 -13 81 3 91 10 7 9 9 -4 9 -19 0 -42 -35 -33 -50 3 -6 1 -10 -4 -10 -16 0
-13 37 5 54 15 15 34 67 34 93 0 8 -13 13 -31 13 l-32 0 5 -47 5 -48 -84 3 c-61
3 -83 0 -83 -9 0 -9 -28 -11 -120 -6 -77 5 -120 3 -120 -3 0 -6 -18 -10 -39 -10
-46 0 -58 -12 -35 -34 27 -28 -5 -18 -67 20 -33 19 -57 40 -54 45 8 13 32 11 41
-3 5 -8 2 -9 -10 -5 -10 4 -15 3 -11 -4 4 -5 16 -7 27 -3 11 3 18 2 15 -2 -8
-15 19 -33 34 -23 11 7 10 9 -4 9 -10 0 -15 5 -12 11 4 6 13 8 19 6 7 -3 13 0 13
7 0 7 -14 12 -36 12 -29 -1 -36 3 -41 24 l-6 25 -19 -28 c-10 -15 -23 -26 -29
-24 -19 8 -186 129 -193 141 -4 6 0 5 9 -2 8 -7 23 -10 32 -6 13 5 15 2 9 -12 -6
-17 -5 -18 11 -4 11 8 14 16 7 18 -6 2 -8 8 -5 14 4 6 -3 5 -16 -2 -18 -10 -25
-8 -43 7 -11 10 -17 12 -13 6 9 -15 -10 -18 -19 -3 -4 6 -24 22 -46 36 -23 14
-37 29 -33 36 4 7 3 8 -4 4 -14 -9 -209 176 -309 294 -48 56 -166 218 -218 300
-106 164 -235 455 -271 607 -48 204 81 409 277 442 30 5 102 9 161 10 104 1 108
0 112 -21z m826 7 c6 -3 28 -41 50 -83 37 -72 70 -133 150 -277 24 -44 28 -54 12
-38 -12 12 -28 25 -35 30 -22 13 -102 122 -133 183 -16 30 -32 57 -35 60 -4 3
-9 15 -13 27 -7 21 -14 22 -126 25 -65 2 -117 1 -116 -2 36 -80 111 -218 118
-214 4 3 5 -2 2 -10 -10 -25 162 -324 265 -461 108 -143 106 -141 132 -127 69 37
121 111 150 212 7 26 13 104 13 180 l1 136 -47 94 c-26 52 -70 137 -98 189 l-51
94 182 -6 c100 -4 239 -7 308 -7 l127 0 93 -165 c51 -90 101 -182 112 -204 19
-40 26 -66 11 -45 -4 5 -32 20 -64 33 -92 37 -129 75 -238 249 l-33 52 -104 0
c-72 0 -103 4 -103 12 0 6 -3 9 -6 5 -6 -6 220 -454 288 -571 56 -95 166 -204
247 -244 l64 -32 -641 0 -641 0 -34 43 c-36 43 -149 246 -290 516 -78 151 -81
158 -85 237 -7 131 -29 122 287 119 148 -2 275 -6 281 -10z"/>
<path d="M3563 6891 c-45 -28 -64 -61 -65 -113 -1 -64 24 -106 79 -130 40 -18
50 -19 89 -8 66 19 104 67 104 131 0 44 -4 55 -38 91 -33 35 -45 41 -88 45 -37
3 -57 -1 -81 -16z"/>
<path d="M2751 3914 c-25 -32 -26 -62 -3 -91 27 -35 64 -39 97 -10 54 46 27 127
-41 127 -23 0 -38 -7 -53 -26z"/>
<path d="M3115 3680 c-27 -30 -25 -88 4 -111 32 -26 67 -24 96 6 33 32 34 87 3
109 -32 23 -81 20 -103 -4z"/>
<path d="M3673 3309 c-45 -22 -83 -82 -83 -131 0 -67 77 -148 140 -148 29 0 104
33 114 49 5 8 180 11 607 11 l600 0 35 -26 c45 -35 109 -42 159 -18 108 51 106
206 -5 262 -51 26 -93 23 -148 -9 -32 -18 -59 -19 -630 -19 l-597 0 -49 25 c-60
30 -88 31 -143 4z"/>
<path d="M4333 8015 c-38 -16 -48 -44 -33 -89 27 -83 140 -61 140 27 0 29 -27 63
-55 71 -11 3 -34 -1 -52 -9z"/>
<path d="M5799 8011 c-29 -23 -31 -81 -4 -111 42 -46 125 -11 125 54 0 64 -71 98
-121 57z"/>
<path d="M3870 7863 c-66 -21 -100 -67 -100 -134 0 -104 96 -166 194 -125 104 44
106 200 3 247 -42 18 -68 22 -97 12z"/>
<path d="M6501 7744 c-12 -15 -21 -38 -21 -51 0 -32 42 -73 75 -73 36 0 75 42 75
80 0 67 -88 97 -129 44z"/>
<path d="M6842 7564 c-16 -11 -22 -25 -22 -53 0 -46 24 -71 68 -71 33 0 72 38 72
70 0 10 -9 29 -21 44 -24 30 -63 34 -97 10z"/>
<path d="M3360 7550 c-44 -44 -10 -120 55 -120 38 0 75 37 75 74 0 58 -87 89
-130 46z"/>
<path d="M2994 7340 c-53 -21 -70 -97 -33 -144 19 -24 48 -38 34 -16 -3 6 1 7 9
4 9 -3 13 -11 10 -16 -4 -6 -1 -8 7 -6 8 3 13 11 11 18 -2 11 0 11 11 2 21 -18
56 15 62 58 5 31 4 32 -5 11 -6 -13 -13 -21 -16 -18 -3 3 1 19 9 36 14 28 13 31
-8 51 -26 24 -61 32 -91 20z"/>
<path d="M6985 7196 c-97 -43 -124 -171 -54 -251 74 -83 212 -65 264 36 34 66 10
153 -57 202 -34 25 -113 32 -153 13z"/>
<path d="M2795 6965 c-49 -48 -15 -135 53 -135 65 0 97 93 49 138 -31 29 -72 28
-102 -3z"/>
<path d="M2430 6750 c-24 -24 -26 -77 -4 -108 21 -31 83 -31 112 1 28 29 32 100
5 90 -11 -5 -14 -3 -8 6 20 33 -73 43 -105 11z"/>
<path d="M7605 6734 c-26 -22 -30 -32 -30 -76 0 -43 4 -53 30 -74 78 -62 172 -5
166 99 -1 10 -14 32 -30 48 -39 39 -93 40 -136 3z"/>
<path d="M2700 6532 c-102 -51 -108 -204 -10 -270 29 -20 44 -23 88 -20 85 7 142
62 149 145 10 120 -116 201 -227 145z"/>
<path d="M7333 6528 c-28 -14 -47 -59 -38 -97 7 -32 42 -61 75 -61 29 0 76 26 84
45 30 80 -44 150 -121 113z"/>
<path d="M2294 6506 c-56 -48 -23 -136 51 -136 71 0 105 92 49 137 -37 29 -66 29
-100 -1z"/>
<path d="M4034 6211 c-92 -56 -49 -201 60 -201 71 0 115 42 115 110 1 93 -93 141
-175 91z"/>
<path d="M6975 6165 c-50 -49 -20 -135 47 -135 39 0 78 40 78 80 0 38 -39 80 -75
80 -14 0 -37 -11 -50 -25z"/>
<path d="M6983 5910 c-28 -12 -56 -66 -49 -94 17 -62 84 -84 130 -44 27 25 46 78
27 78 -6 0 -8 6 -5 13 11 31 -62 64 -103 47z"/>
<path d="M4028 5813 c-59 -38 -64 -136 -8 -185 24 -22 40 -28 76 -28 39 0 51 5 80
34 29 29 34 41 34 80 0 66 -38 107 -106 113 -35 3 -57 -1 -76 -14z"/>
<path d="M2538 5365 c-57 -32 -66 -108 -19 -156 69 -68 187 -5 166 89 -13 63 -91
98 -147 67z"/>
<path d="M1922 5244 c-35 -24 -44 -59 -28 -99 32 -75 124 -72 156 5 15 35 -1 84
-31 100 -27 15 -72 12 -97 -6z"/>
<path d="M1911 4843 c-31 -26 -36 -72 -12 -110 18 -28 27 -33 59 -33 50 0 82 32
82 82 0 65 -79 102 -129 61z"/>
<path d="M6965 3850 c-69 -15 -105 -60 -105 -130 0 -96 101 -155 188 -111 48 24
72 64 72 117 0 40 -31 98 -58 109 -41 17 -69 21 -97 15z"/>
<path d="M6057 3399 c-43 -25 -39 -110 6 -126 53 -17 97 12 97 64 0 58 -54 90
-103 62z"/>
<path d="M6430 3317 c-32 -16 -54 -61 -45 -94 3 -13 17 -36 31 -50 21 -21 32 -24
62 -20 45 8 71 33 78 78 5 28 1 41 -17 62 -29 31 -75 41 -109 24z"/>
</g>
</svg>

